<?xml version="1.0" encoding="utf-8"?>
<!-- Svg Vector Icons : http://www.onlinewebfonts.com/icon -->
<!DOCTYPE svg PUBLIC "-//W3C//DTD SVG 1.1//EN" "http://www.w3.org/Graphics/SVG/1.1/DTD/svg11.dtd">
<svg version="1.1" xmlns="http://www.w3.org/2000/svg" xmlns:xlink="http://www.w3.org/1999/xlink" x="0px" y="0px" viewBox="0 0 1000 1000" enable-background="new 0 0 1000 1000" xml:space="preserve" fill="#eceaea">
<metadata> Svg Vector Icons : http://www.onlinewebfonts.com/icon </metadata>
<g><g transform="matrix(1 0 0 -1 0 1952)"><path d="M959.3,1482.7H653.7v183.9c0,16.9-13.7,30.7-30.7,30.7H377.9c-16.9,0-30.7-13.7-30.7-30.7v-123.3L40.7,1544c-16.9,0-30.7-13.7-30.7-30.7v-275.9c0-16.9,13.7-30.7,30.7-30.7h918.7c16.9,0,30.7,13.7,30.7,30.7V1452C990,1468.9,976.3,1482.7,959.3,1482.7L959.3,1482.7z M223.7,1360.4l0-31H104.8c0.3,12.4,3,23.8,8,34.1c4.9,11.6,16.4,16.2,34.5,29.1c15.7,11.3,25.9,11.6,30.5,16.5c7.1,7.6,10.7,11.1,10.7,20.1c0,7.3-2,13.4-6.1,18.3c-4.1,4.9-9.9,7.3-17.5,7.3c-10.4,0-17.4-3.9-21.2-11.6c-2.2-4.5-3.4-11.6-3.8-21.3h-33.2c0.6,14.8,3.2,26.7,8,35.8c9.1,17.3,25.3,26,48.5,26c18.4,0,33-5.1,43.9-15.3c10.9-10.2,17.3-23.6,17.3-40.4c0-12.9-3.8-19.5-11.5-29.5c-5-6.7-14.3-6.3-25.8-14.5l-13.7-9.7c-9.2-2.5-13.8-5.7-25.5-14L223.7,1360.4L223.7,1360.4L223.7,1360.4z M532,1452h-32.1v92h-30.3l-1,31.9c10.7,0.5,10.6,1.2,14.9,2.2c6.9,1.5,7.6-0.2,11.9,4.3c2.9,3.1,5.2,7.3,6.7,12.4c0.9,3.1,1.3,9.3,1.3,10.8H532V1452L532,1452z M884.7,1282.4c-10.2-11.1-28.1-14.8-48-14.8c-24.6,0-44.5,6.1-54.1,22.1c-5,8.5-7.8,11.1-8.4,24.9h34.5c0-6.9,1.1-9.8,3.4-14.4c3.2-2.6,13.6-4,24.5-4c6.7,0,15.4,2.3,20.4,6.9c5,4.6,7.5,8.3,7.5,16.9c0,11.4-4.6,8.5-13.8,12.3c-5.3,2.2-3,3.2-14.3,3.2v22.5c11.1,0.2,8.2,1.2,12.6,3.2c7.6,3.4,11.3,0.6,11.3,10.8c0,6.6-1.9,9.1-5.8,13.3c-3.9,4.2-12.2,6.2-19.2,6.2c-8,0-16.8-2.6-20.6-7.7c-3.8-5.1-5.6-0.4-5.4-9h-31.8c0.3,8.6,1.8,8.2,4.4,15.9c2.8,6.8,7.2,13.1,13.1,18.8c4.5,4.1,12.6,7.2,18.8,9.3c6.1,2.2,13.7,3.2,22.6,3.2c16.6,0,37.6-2.4,47.8-11c10.2-8.6,15.3-20.1,15.3-34.5c0-10.2-5.9-11.2-12-18.2c-3.8-4.4-9.7-7.4-13.9-9c3.1,0,7.6-0.8,13.4-6.1c8.7-8.1,13.1-8.6,13.1-22.5C899.9,1306.4,894.8,1293.5,884.7,1282.4L884.7,1282.4z"/></g></g>
</svg>