<?xml version="1.0" encoding="UTF-8" standalone="no"?>
<!-- Generator: Adobe Illustrator 19.0.0, SVG Export Plug-In . SVG Version: 6.00 Build 0)  -->

<svg
  fill="#eceaea"
   xmlns:dc="http://purl.org/dc/elements/1.1/"
   xmlns:cc="http://creativecommons.org/ns#"
   xmlns:rdf="http://www.w3.org/1999/02/22-rdf-syntax-ns#"
   xmlns:svg="http://www.w3.org/2000/svg"
   xmlns="http://www.w3.org/2000/svg"
   xmlns:sodipodi="http://sodipodi.sourceforge.net/DTD/sodipodi-0.dtd"
   xmlns:inkscape="http://www.inkscape.org/namespaces/inkscape"
   version="1.1"
   id="Layer_1"
   x="0px"
   y="0px"
   viewBox="0 0 512 512"
   style="enable-background:new 0 0 512 512;"
   xml:space="preserve"
   sodipodi:docname="stadium.svg"
   inkscape:version="0.92.2 5c3e80d, 2017-08-06"><metadata
     id="metadata61"><rdf:RDF><cc:Work
         rdf:about=""><dc:format>image/svg+xml</dc:format><dc:type
           rdf:resource="http://purl.org/dc/dcmitype/StillImage" /></cc:Work></rdf:RDF></metadata><defs
     id="defs59" /><sodipodi:namedview
     pagecolor="#ffffff"
     bordercolor="#666666"
     borderopacity="1"
     objecttolerance="10"
     gridtolerance="10"
     guidetolerance="10"
     inkscape:pageopacity="0"
     inkscape:pageshadow="2"
     inkscape:window-width="640"
     inkscape:window-height="480"
     id="namedview57"
     showgrid="false"
     inkscape:zoom="0.4609375"
     inkscape:cx="256"
     inkscape:cy="169.22034"
     inkscape:window-x="0"
     inkscape:window-y="0"
     inkscape:window-maximized="0"
     inkscape:current-layer="Layer_1" /><g
     id="g24"><g
       id="g22"><g
         id="g20"><path
           d="M503.652,71.838H8.348C3.738,71.838,0,75.576,0,80.186v351.628c0,4.61,3.738,8.348,8.348,8.348h495.304     c4.61,0,8.348-3.738,8.348-8.348V80.186C512,75.576,508.262,71.838,503.652,71.838z M495.304,181.22H449.67     c-4.61,0-8.348,3.738-8.348,8.348s3.738,8.348,8.348,8.348h45.635v225.55H16.696v-225.55h377.104c4.61,0,8.348-3.738,8.348-8.348     s-3.738-8.348-8.348-8.348H16.696V88.534h478.609V181.22z"
           id="path2" /><path
           d="M94.487,162.168h47.426h47.426c4.61,0,8.348-3.738,8.348-8.348v-42.005c0-4.61-3.738-8.348-8.348-8.348h-47.426H94.487     c-4.61,0-8.348,3.738-8.348,8.348v42.005C86.14,158.431,89.877,162.168,94.487,162.168z M150.261,120.163h30.73v25.309h-30.73     V120.163z M102.835,120.162h30.73v25.309h-30.73V120.162z"
           id="path4" /><path
           d="M322.661,162.168h47.426h47.426c4.61,0,8.348-3.738,8.348-8.348v-42.005c0-4.61-3.738-8.348-8.348-8.348h-47.426h-47.426     c-4.61,0-8.348,3.738-8.348,8.348v42.005C314.313,158.431,318.051,162.168,322.661,162.168z M378.435,120.163h30.73v25.309     h-30.73V120.163z M331.009,120.162h30.73v25.309h-30.73V120.162z"
           id="path6" /><path
           d="M278.424,236.829v82.423c0,4.61,3.738,8.348,8.348,8.348s8.348-3.738,8.348-8.348v-74.075h141.357v126.132H295.12v-16.44     c0-4.61-3.738-8.348-8.348-8.348s-8.348,3.738-8.348,8.348v24.787c0,4.61,3.738,8.348,8.348,8.348h158.052     c4.61,0,8.348-3.738,8.348-8.348V236.829c0-4.61-3.738-8.348-8.348-8.348H286.772     C282.162,228.481,278.424,232.219,278.424,236.829z"
           id="path8" /><path
           d="m 113.117,332.386 c -4.714,0 -8.726,-2.002 -8.726,-5.809 0,-4.607 -3.811,-5.709 -8.124,-5.709 -5.015,0 -7.323,1.503 -7.323,6.31 0,8.312 6.721,18.829 23.672,18.829 14.444,0 25.578,-6.41 25.578,-23.637 v -26.54 c 0,-17.227 -10.833,-23.637 -24.675,-23.637 -13.842,0 -24.575,6.41 -24.575,23.637 v 0.902 c 0,16.025 9.629,21.032 21.064,21.032 4.815,0 9.328,-0.902 12.538,-4.407 v 9.013 c -0.001,6.912 -3.511,10.016 -9.429,10.016 z m 0.502,-26.64 c -5.718,0 -9.028,-2.805 -9.028,-10.115 v -0.902 c 0,-6.911 3.31,-9.915 8.928,-9.915 5.617,0 9.028,3.004 9.028,9.915 v 1.803 c -0.002,6.61 -3.512,9.214 -8.928,9.214 z"
           id="path10"
           inkscape:connector-curvature="0" /><path
           d="M370.412,330.884v9.715c0,2.905,4.011,4.807,6.821,4.807h35.709c2.508,0,4.715-3.305,4.715-6.91     c0-3.606-2.206-6.711-4.715-6.711h-26.28v-0.902c0-9.114,30.995-16.225,30.995-37.958c0-13.421-11.736-20.732-23.372-20.732     c-11.434,0-22.669,7.011-22.669,19.229c0,6.31,3.01,8.113,7.021,8.113c5.116,0,8.225-2.805,8.225-5.709     c0-5.508,3.511-7.512,7.523-7.512c5.618,0,7.623,3.906,7.623,7.111C402.009,306.147,370.412,315.161,370.412,330.884z"
           id="path12" /><path
           d="M225.228,228.481H67.176c-4.61,0-8.348,3.738-8.348,8.348v142.828c0,4.61,3.738,8.348,8.348,8.348h158.052     c4.61,0,8.348-3.738,8.348-8.348v-24.787c0-4.61-3.738-8.348-8.348-8.348c-4.61,0-8.348,3.738-8.348,8.348v16.44H75.523V245.177     H216.88v74.075c0,4.61,3.738,8.348,8.348,8.348c4.61,0,8.348-3.738,8.348-8.348v-82.423     C233.575,232.219,229.838,228.481,225.228,228.481z"
           id="path14" /><path
           d="m 197.588,292.926 c 0,-13.421 -11.736,-20.732 -23.372,-20.732 -11.434,0 -22.669,7.011 -22.669,19.229 0,6.31 3.01,8.113 7.021,8.113 5.116,0 8.225,-2.805 8.225,-5.709 0,-5.508 3.511,-7.512 7.523,-7.512 5.618,0 7.623,3.906 7.623,7.111 0,12.72 -31.596,21.733 -31.596,37.457 v 9.715 c 0,2.905 4.011,4.807 6.821,4.807 h 35.709 c 2.508,0 4.715,-3.305 4.715,-6.91 0,-3.606 -2.207,-6.711 -4.715,-6.711 h -26.28 v -0.902 c 0,-9.111 30.995,-16.222 30.995,-37.956 z"
           id="path16"
           inkscape:connector-curvature="0" /><path
           d="m 309.45046,324.51298 v 1.202 c 0,14.923 10.833,20.631 24.675,20.631 13.842,0 24.575,-5.709 24.575,-20.631 v -1.202 c 0,-10.316 -4.915,-16.325 -12.337,-18.828 5.918,-2.003 9.931,-7.011 9.931,-15.324 0,-12.519 -9.228,-17.828 -22.167,-17.828 -12.939,0 -22.168,5.308 -22.168,17.828 0,8.313 4.013,13.321 9.931,15.324 -7.424,2.503 -12.44,8.512 -12.44,18.828 z m 24.677,-39.46 c 4.513,0 7.121,2.203 7.121,7.31 0,5.208 -2.608,7.211 -7.121,7.211 -4.515,0 -7.121,-2.002 -7.121,-7.211 -0.002,-5.107 2.606,-7.31 7.121,-7.31 z m -9.028,36.556 c 0,-6.51 3.41,-9.514 9.028,-9.514 5.616,0 8.928,3.004 8.928,9.514 v 2.203 c 0,6.711 -3.21,10.016 -8.928,10.016 -5.517,0 -9.028,-3.105 -9.028,-10.016 z"
           id="path18"
           inkscape:connector-curvature="0" /></g></g></g><g
     id="g26" /><g
     id="g28" /><g
     id="g30" /><g
     id="g32" /><g
     id="g34" /><g
     id="g36" /><g
     id="g38" /><g
     id="g40" /><g
     id="g42" /><g
     id="g44" /><g
     id="g46" /><g
     id="g48" /><g
     id="g50" /><g
     id="g52" /><g
     id="g54" /></svg>