<?xml version="1.0" encoding="UTF-8"?>
<svg data-name="Ebene 1" inkscape:version="0.92.2 5c3e80d, 2017-08-06" sodipodi:docname="TBA-Logo_gerade.svg" version="1.1" viewBox="0 0 2201.86 2201.86" xmlns="http://www.w3.org/2000/svg" xmlns:cc="http://creativecommons.org/ns#" xmlns:dc="http://purl.org/dc/elements/1.1/" xmlns:inkscape="http://www.inkscape.org/namespaces/inkscape" xmlns:rdf="http://www.w3.org/1999/02/22-rdf-syntax-ns#" xmlns:sodipodi="http://sodipodi.sourceforge.net/DTD/sodipodi-0.dtd" fill="#eceaea">
 <metadata>
  <rdf:RDF>
   <cc:Work rdf:about="">
    <dc:format>image/svg+xml</dc:format>
    <dc:type rdf:resource="http://purl.org/dc/dcmitype/StillImage"/>
    <dc:title>TBA-Logo_01-02</dc:title>
   </cc:Work>
  </rdf:RDF>
 </metadata>
 <sodipodi:namedview bordercolor="#666666" borderopacity="1" gridtolerance="10" guidetolerance="10" inkscape:current-layer="Ebene_1" inkscape:cx="1100.9301" inkscape:cy="1100.9301" inkscape:pageopacity="0" inkscape:pageshadow="2" inkscape:window-height="480" inkscape:window-maximized="0" inkscape:window-width="640" inkscape:window-x="0" inkscape:window-y="0" inkscape:zoom="0.1071821" objecttolerance="10" pagecolor="#ffffff" showgrid="false"/>
 <title>TBA-Logo_01-02</title>
 <path d="m1862.5 1087.5a759.61 759.61 0 0 0 -36.92 -221.78c-0.8 6.33-1.58 12.7-2.17 19.1-2.92 32.26-6 64.53-8.13 96.85-0.32 4.79 2.71 10.75 6 14.68 19.57 23.28 33.68 62.49 41.22 91.15z"/>
 <path d="m1185.6 740.77c0-36.39-31.18-41.06-58.35-41.06h-42.39v90.1h42.39c37.08 0 58.35-17.87 58.35-49.04zm-27.61 35.23q-32.62-5.81-65.51-10.22v-48.72q42.7 6 84.72 15a44.65 44.65 0 0 1 0.8 8.71c-0.01 16.57-6.95 28.51-20.01 35.23z"/>
 <path d="m1135.2 862h-50.37v102.1h50.37c58.13 0 70.33-28.84 70.33-53 0-33.5-22.35-49.1-70.33-49.1z"/>
 <path d="M1562,836.94c-5.82-22.56-11.75-49-17.49-74.55-4.73-21.08-9.61-42.88-14.43-62.44l-.71-2.9h-8.73l-.64,3c-1.28,6-2.58,12.2-3.91,18.48-8.2,38.85-17.49,82.89-26.67,118.44L1481,871.63h89.53ZM1490.66,864l6.15-25.18.49-1.94q31.89,13.22,63.48,27.11h-70.12Z"/>
 <path d="M1900.65,1095.81a799,799,0,0,0-1597.94,0H118V1527H425.66a799,799,0,0,0,1352.05,0h307.64V1095.81ZM378.1,795.26a785.27,785.27,0,0,1,1508.84,300.55h-31.78c-7.56-13.85-17.54-26.07-34.3-33q-4.65,16.62-9.15,33h-47.42q5.87-36.25,11.11-72.62c.56-3.8-2.68-10.29-6.07-12.19q-28.74-16.07-57.68-31.64l-16.22-53.25q35.73,17.14,71.27,34.72c5.46,2.69,11,5.26,18.85,9,3.49-11.75,9.19-22.6,9.52-33.61,1.06-34.72.36-69.51-.41-104.25-.1-4.38-3.67-10-7.36-12.8q-81.22-62.3-162.41-124.64L1603.71,625q14.8,12.91,29.67,25.77c49.48,42.58,98.6,85.58,147.9,128.37a19.7,19.7,0,0,0,3.11,1.81c1.09-6.9-3.21-20.48-10.89-37.74-127.81-239.53-380-402.66-670.29-403.21,5.47,1.06,11,2.29,16.6,3.71,4.13,1,8.24,2.13,12.34,3.24,113,30.68,214.29,85.6,311.24,149.81,51.85,34.34,98.73,74.53,145.28,115.12h-72.11q-39.75-30.18-79.65-60.16c-52.77-39.61-106.55-78.32-162.59-113.15-71.15-44.21-149.55-71.89-232.64-84.51q-3.26-.49-6.53-1c-15.27-2.17-24.1-4.75-27.8-7.3C716.53,381.81,476.58,581.88,383,850.54c54.26-46.46,117.65-78.07,186.13-100.95A781.26,781.26,0,0,1,677.76,722v54.83a1095.32,1095.32,0,0,0-128.22,33.26c-62.74,20.45-122.63,46.85-179.15,80.14a761.12,761.12,0,0,0-29.51,205.58H316.42A780.05,780.05,0,0,1,378.1,795.26Zm1216-175.74,129.39,424.77h-112.9l-21.29-91.8H1462.16l-21.29,91.8H1332l129.39-424.77ZM1388,834.27c-40.35-13.72-81.4-25.81-123.28-35.95a95.82,95.82,0,0,0,25.47-36.93q34.92,10.58,69.47,22.69,19.74,6.9,39.31,14.2Zm-167.22-21.35-2.84.75v8.73l3.07.6c60.54,11.84,88.73,42.79,88.73,97.38,0,40.81-16.33,72.48-48.54,94.12-29,19.49-69.78,29.79-118,29.79H978.07V619.52h151.85c50.4,0,87.66,7,113.91,21.48,30.9,17,45.92,44,45.92,82.47C1289.75,756.36,1271.68,799.52,1220.75,812.92Zm-250.3-57.8q-54.6-2.29-109.3,0-30.79,1.38-61.35,4.2V715.31H914.21V704.89q28.13.24,56.24,1.48ZM571,707.69V619.52H906.6v88.17H792.18v336.6H685.38V707.69Zm917.31,1076.93A785.31,785.31,0,0,1,441.91,1527h29.33c111.26,164.33,285.06,282.87,487.25,321.39,90.56-7.93,177.93-31.06,260.66-68,40.25-18,77.08-44.19,113.75-69.12a1288,1288,0,0,0,188.22-156.13q13.85-13.89,27.18-28.14h38.3a1134.33,1134.33,0,0,1-304.39,253.38,654.24,654.24,0,0,1-231,79.82q25,1.63,50.53,1.66c262.37,0,493.68-132.82,630.48-334.86h29.23A790.82,790.82,0,0,1,1488.28,1784.62Zm584.46-271.34H130.56l2.38-403.76H2070.45Z"/>
 <path d="m374.44 1293.9v-1.83c34.83-9.17 49.5-38.5 49.5-64.16 0-58.67-50.41-74.25-112.74-74.25h-107.2v297.9h116.4c64.17 0 117.33-26.58 117.33-88-0.04-39.41-21.12-61.41-63.29-69.66zm-91.66-79.74h26.58c25.67 0 37.59 7.33 37.59 25.66s-11.95 31.16-37.59 31.16h-26.58zm32.08 176.9h-32.08v-65.08h32.08c31.17 0 45.83 9.17 45.83 31.17s-14.69 33.91-45.83 33.91z"/>
 <path d="m537.6 1153.7l-90.75 297.9h80.66l14.67-63.25h83.41l14.67 63.25h83.41l-90.75-297.9zm18.79 173.7 5-20.63c7.33-28.41 14.66-64.16 21.08-94.41h1.83c7.34 29.79 14.67 66 22 94.41l5 20.63z"/>
 <path d="m904.7 1280.2-36.21-14.17c-27-10.54-44-15.59-44-29.79 0-13.29 11.92-20.17 31.17-20.17 22 0 39.41 7.33 59.58 21.54l39.41-49.5c-27.5-27-65.08-39.87-99-39.87-65.08 0-110.91 41.71-110.91 92.58 0 43.08 28 70.12 60 83l37.12 15.58c25.21 10.09 40.33 14.67 40.33 28.88 0 13.29-10.08 21.08-33.91 21.08-22 0-48.58-11.92-69.67-28.87l-44.91 54.08c32.08 28.87 75.16 42.62 112.74 42.62 74.25 0 116.41-44.92 116.41-95.33 0.05-41.33-21.03-66.99-58.15-81.66z"/>
 <polygon points="1252.5 1153.7 1166.4 1153.7 1091.2 1264.6 1089.4 1264.6 1089.4 1153.7 1010.6 1153.7 1010.6 1451.6 1089.4 1451.6 1089.4 1377.3 1117.8 1337 1183.8 1451.6 1270 1451.6 1163.6 1274.7"/>
 <polygon points="1377.2 1332.4 1474.4 1332.4 1474.4 1266.4 1377.2 1266.4 1377.2 1219.7 1490.9 1219.7 1490.9 1153.7 1298.4 1153.7 1298.4 1451.6 1495.4 1451.6 1495.4 1385.6 1377.2 1385.6"/>
 <polygon points="1531.2 1219.7 1610 1219.7 1610 1451.6 1688.8 1451.6 1688.8 1219.7 1767.7 1219.7 1767.7 1153.7 1531.2 1153.7"/>
 <path d="m1955.1 1280.2l-36.21-14.2c-27-10.54-44-15.59-44-29.79 0-13.29 11.92-20.17 31.17-20.17 22 0 39.41 7.33 59.58 21.54l39.41-49.5c-27.5-27-65.08-39.87-99-39.87-65.08 0-110.91 41.71-110.91 92.58 0 43.08 28 70.12 60 83l37.12 15.58c25.2 10.09 40.33 14.67 40.33 28.88 0 13.29-10.08 21.08-33.92 21.08-22 0-48.57-11.92-69.66-28.87l-44.91 54.08c32.08 28.87 75.16 42.62 112.74 42.62 74.25 0 116.41-44.92 116.41-95.33 0.05-41.3-21.03-66.96-58.15-81.63z"/>
</svg>
